<svg xmlns="http://www.w3.org/2000/svg" xmlns:xlink="http://www.w3.org/1999/xlink" width="500" zoomAndPan="magnify" viewBox="0 0 375 374.999991" height="500" preserveAspectRatio="xMidYMid meet" version="1.0"><defs><g/><clipPath id="6d0fcc3d2f"><path d="M 47 227.296875 L 103 227.296875 L 103 276 L 47 276 Z M 47 227.296875 " clip-rule="nonzero"/></clipPath><clipPath id="f13ed173dc"><path d="M 256.488281 98.808594 L 312.738281 98.808594 L 312.738281 147.558594 L 256.488281 147.558594 Z M 256.488281 98.808594 " clip-rule="nonzero"/></clipPath></defs><rect x="-37.5" width="450" fill="#ffffff" y="-37.499999" height="449.999989" fill-opacity="1"/><rect x="-37.5" width="450" fill="#ffffff" y="-37.499999" height="449.999989" fill-opacity="1"/><rect x="-37.5" width="450" fill="#ffffff" y="-37.499999" height="449.999989" fill-opacity="1"/><g clip-path="url(#6d0fcc3d2f)"><path fill="#000000" d="M 102.53125 275.5 C 102.699219 275.296875 102.792969 275.066406 102.8125 274.804688 C 102.835938 274.542969 102.78125 274.300781 102.648438 274.070312 L 76.023438 227.882812 C 75.96875 227.789062 75.902344 227.703125 75.824219 227.625 C 75.746094 227.546875 75.660156 227.476562 75.5625 227.421875 C 75.46875 227.367188 75.367188 227.324219 75.261719 227.296875 C 75.152344 227.269531 75.046875 227.253906 74.933594 227.253906 C 74.824219 227.253906 74.714844 227.269531 74.609375 227.296875 C 74.503906 227.324219 74.402344 227.367188 74.304688 227.421875 C 74.210938 227.476562 74.125 227.546875 74.046875 227.625 C 73.96875 227.703125 73.902344 227.789062 73.84375 227.882812 L 47.21875 274.070312 C 47.089844 274.300781 47.035156 274.542969 47.054688 274.804688 C 47.078125 275.066406 47.171875 275.296875 47.335938 275.5 C 47.503906 275.703125 47.710938 275.839844 47.964844 275.914062 C 48.214844 275.984375 48.464844 275.980469 48.714844 275.894531 L 74.933594 266.988281 L 101.15625 275.894531 C 101.402344 275.976562 101.652344 275.984375 101.90625 275.914062 C 102.15625 275.839844 102.367188 275.703125 102.53125 275.5 Z M 102.53125 275.5 " fill-opacity="1" fill-rule="nonzero"/></g><g fill="#000000" fill-opacity="1"><g transform="translate(201.22587, 140.12788)"><g><path d="M -73.34375 79.59375 C -53.144531 85.40625 -38.445312 92.539062 -29.25 101 C -20.050781 109.46875 -15.453125 119.914062 -15.453125 132.34375 C -15.453125 146.40625 -21.070312 158.035156 -32.3125 167.234375 C -43.5625 176.429688 -58.179688 181.03125 -76.171875 181.03125 C -88.429688 181.03125 -99.363281 178.65625 -108.96875 173.90625 C -118.582031 169.164062 -126.023438 162.625 -131.296875 154.28125 C -136.566406 145.945312 -139.203125 136.832031 -139.203125 126.9375 L -115.53125 126.9375 C -115.53125 137.726562 -112.097656 146.210938 -105.234375 152.390625 C -98.367188 158.566406 -88.679688 161.65625 -76.171875 161.65625 C -64.554688 161.65625 -55.5 159.097656 -49 153.984375 C -42.5 148.878906 -39.25 141.785156 -39.25 132.703125 C -39.25 125.429688 -42.332031 119.28125 -48.5 114.25 C -54.675781 109.21875 -65.1875 104.617188 -80.03125 100.453125 C -94.875 96.285156 -106.484375 91.6875 -114.859375 86.65625 C -123.242188 81.625 -129.457031 75.753906 -133.5 69.046875 C -137.550781 62.347656 -139.578125 54.457031 -139.578125 45.375 C -139.578125 30.90625 -133.929688 19.316406 -122.640625 10.609375 C -111.359375 1.898438 -96.273438 -2.453125 -77.390625 -2.453125 C -65.128906 -2.453125 -53.679688 -0.101562 -43.046875 4.59375 C -32.421875 9.300781 -24.222656 15.742188 -18.453125 23.921875 C -12.691406 32.097656 -9.8125 41.378906 -9.8125 51.765625 L -33.484375 51.765625 C -33.484375 40.960938 -37.46875 32.429688 -45.4375 26.171875 C -53.414062 19.921875 -64.066406 16.796875 -77.390625 16.796875 C -89.816406 16.796875 -99.34375 19.332031 -105.96875 24.40625 C -112.59375 29.476562 -115.90625 36.390625 -115.90625 45.140625 C -115.90625 53.890625 -112.835938 60.65625 -106.703125 65.4375 C -100.566406 70.21875 -89.445312 74.9375 -73.34375 79.59375 Z M -73.34375 79.59375 "/></g></g></g><g fill="#000000" fill-opacity="1"><g transform="translate(157.198794, 234.868407)"><g><path d="M 73.34375 -79.59375 C 53.144531 -85.40625 38.445312 -92.539062 29.25 -101 C 20.050781 -109.46875 15.453125 -119.914062 15.453125 -132.34375 C 15.453125 -146.40625 21.070312 -158.035156 32.3125 -167.234375 C 43.5625 -176.429688 58.179688 -181.03125 76.171875 -181.03125 C 88.429688 -181.03125 99.363281 -178.65625 108.96875 -173.90625 C 118.582031 -169.164062 126.023438 -162.625 131.296875 -154.28125 C 136.566406 -145.945312 139.203125 -136.832031 139.203125 -126.9375 L 115.53125 -126.9375 C 115.53125 -137.726562 112.097656 -146.210938 105.234375 -152.390625 C 98.367188 -158.566406 88.679688 -161.65625 76.171875 -161.65625 C 64.554688 -161.65625 55.5 -159.097656 49 -153.984375 C 42.5 -148.878906 39.25 -141.785156 39.25 -132.703125 C 39.25 -125.429688 42.332031 -119.28125 48.5 -114.25 C 54.675781 -109.21875 65.1875 -104.617188 80.03125 -100.453125 C 94.875 -96.285156 106.484375 -91.6875 114.859375 -86.65625 C 123.242188 -81.625 129.457031 -75.753906 133.5 -69.046875 C 137.550781 -62.347656 139.578125 -54.457031 139.578125 -45.375 C 139.578125 -30.90625 133.929688 -19.316406 122.640625 -10.609375 C 111.359375 -1.898438 96.273438 2.453125 77.390625 2.453125 C 65.128906 2.453125 53.679688 0.101562 43.046875 -4.59375 C 32.421875 -9.300781 24.222656 -15.742188 18.453125 -23.921875 C 12.691406 -32.097656 9.8125 -41.378906 9.8125 -51.765625 L 33.484375 -51.765625 C 33.484375 -40.960938 37.46875 -32.429688 45.4375 -26.171875 C 53.414062 -19.921875 64.066406 -16.796875 77.390625 -16.796875 C 89.816406 -16.796875 99.34375 -19.332031 105.96875 -24.40625 C 112.59375 -29.476562 115.90625 -36.390625 115.90625 -45.140625 C 115.90625 -53.890625 112.835938 -60.65625 106.703125 -65.4375 C 100.566406 -70.21875 89.445312 -74.9375 73.34375 -79.59375 Z M 73.34375 -79.59375 "/></g></g></g><g clip-path="url(#f13ed173dc)"><path fill="#000000" d="M 256.96875 99.355469 C 256.800781 99.558594 256.707031 99.789062 256.6875 100.050781 C 256.667969 100.3125 256.722656 100.554688 256.851562 100.78125 L 283.476562 146.96875 C 283.53125 147.066406 283.597656 147.152344 283.675781 147.230469 C 283.753906 147.308594 283.839844 147.375 283.9375 147.433594 C 284.03125 147.488281 284.132812 147.527344 284.242188 147.558594 C 284.347656 147.585938 284.457031 147.601562 284.566406 147.601562 C 284.675781 147.601562 284.785156 147.585938 284.890625 147.558594 C 285 147.527344 285.097656 147.488281 285.195312 147.433594 C 285.289062 147.375 285.378906 147.308594 285.457031 147.230469 C 285.535156 147.152344 285.601562 147.066406 285.65625 146.96875 L 312.28125 100.78125 C 312.410156 100.554688 312.464844 100.3125 312.445312 100.050781 C 312.421875 99.789062 312.328125 99.554688 312.164062 99.355469 C 311.996094 99.152344 311.789062 99.011719 311.535156 98.941406 C 311.285156 98.871094 311.035156 98.875 310.785156 98.960938 L 284.566406 107.867188 L 258.34375 98.960938 C 258.097656 98.875 257.847656 98.871094 257.59375 98.941406 C 257.34375 99.015625 257.132812 99.152344 256.96875 99.355469 Z M 256.96875 99.355469 " fill-opacity="1" fill-rule="nonzero"/></g></svg>