<?xml version="1.0" encoding="utf-8"?>
<svg width="500" zoomAndPan="magnify" viewBox="0 0 375 374.999991" height="500" preserveAspectRatio="xMidYMid meet" version="1.0" xmlns="http://www.w3.org/2000/svg">
  <defs>
    <g/>
    <clipPath id="40f87b9805">
      <path d="M 297 278.917969 L 298.234375 278.917969 L 298.234375 280 L 297 280 Z M 297 278.917969 " clip-rule="nonzero"/>
    </clipPath>
    <clipPath id="e9ed7eed96">
      <path d="M 297 279 L 298.234375 279 L 298.234375 288.667969 L 297 288.667969 Z M 297 279 " clip-rule="nonzero"/>
    </clipPath>
    <clipPath id="d13a12af81">
      <path d="M 289 279 L 298 279 L 298 288.667969 L 289 288.667969 Z M 289 279 " clip-rule="nonzero"/>
    </clipPath>
    <clipPath id="92df1bfebb">
      <path d="M 289 278.917969 L 298 278.917969 L 298 280 L 289 280 Z M 289 278.917969 " clip-rule="nonzero"/>
    </clipPath>
    <clipPath id="e0437897d7">
      <path d="M 288.484375 278.917969 L 290 278.917969 L 290 280 L 288.484375 280 Z M 288.484375 278.917969 " clip-rule="nonzero"/>
    </clipPath>
    <clipPath id="60d00acae7">
      <path d="M 288.484375 279 L 290 279 L 290 288.667969 L 288.484375 288.667969 Z M 288.484375 279 " clip-rule="nonzero"/>
    </clipPath>
    <clipPath id="32e9d38e85">
      <path d="M 289 288 L 298 288 L 298 288.667969 L 289 288.667969 Z M 289 288 " clip-rule="nonzero"/>
    </clipPath>
    <clipPath id="f615a24346">
      <path d="M 288.484375 288 L 290 288 L 290 288.667969 L 288.484375 288.667969 Z M 288.484375 288 " clip-rule="nonzero"/>
    </clipPath>
    <clipPath id="f15abd0d20">
      <path d="M 297 288 L 298.234375 288 L 298.234375 288.667969 L 297 288.667969 Z M 297 288 " clip-rule="nonzero"/>
    </clipPath>
    <clipPath id="804fb3ad24">
      <path d="M 288.484375 274.699219 L 298.234375 274.699219 L 298.234375 288.199219 L 288.484375 288.199219 Z M 288.484375 274.699219 " clip-rule="nonzero"/>
    </clipPath>
    <clipPath id="4132b203f0">
      <path d="M 85.171875 181.835938 L 130.171875 181.835938 L 130.171875 220.835938 L 85.171875 220.835938 Z M 85.171875 181.835938 " clip-rule="nonzero"/>
    </clipPath>
    <clipPath id="6eae70eae6">
      <path d="M 253 79.046875 L 297.957031 79.046875 L 297.957031 118.046875 L 253 118.046875 Z M 253 79.046875 " clip-rule="nonzero"/>
    </clipPath>
  </defs>
  <g fill="#000000" fill-opacity="1" transform="matrix(1, 0, 0, 1, 6.460202, 8.632813)">
    <g transform="translate(37.573226, 308.468259)">
      <g>
        <path d="M 10.859375 -11.796875 C 7.867188 -12.648438 5.691406 -13.703125 4.328125 -14.953125 C 2.960938 -16.210938 2.28125 -17.757812 2.28125 -19.59375 C 2.28125 -21.675781 3.113281 -23.398438 4.78125 -24.765625 C 6.445312 -26.128906 8.613281 -26.8125 11.28125 -26.8125 C 13.09375 -26.8125 14.710938 -26.457031 16.140625 -25.75 C 17.566406 -25.050781 18.671875 -24.082031 19.453125 -22.84375 C 20.234375 -21.613281 20.625 -20.265625 20.625 -18.796875 L 17.109375 -18.796875 C 17.109375 -20.398438 16.597656 -21.65625 15.578125 -22.5625 C 14.566406 -23.476562 13.132812 -23.9375 11.28125 -23.9375 C 9.5625 -23.9375 8.21875 -23.554688 7.25 -22.796875 C 6.289062 -22.046875 5.8125 -21 5.8125 -19.65625 C 5.8125 -18.570312 6.269531 -17.65625 7.1875 -16.90625 C 8.101562 -16.164062 9.660156 -15.488281 11.859375 -14.875 C 14.054688 -14.257812 15.773438 -13.578125 17.015625 -12.828125 C 18.253906 -12.085938 19.171875 -11.21875 19.765625 -10.21875 C 20.367188 -9.226562 20.671875 -8.0625 20.671875 -6.71875 C 20.671875 -4.570312 19.832031 -2.851562 18.15625 -1.5625 C 16.488281 -0.28125 14.257812 0.359375 11.46875 0.359375 C 9.644531 0.359375 7.945312 0.015625 6.375 -0.671875 C 4.800781 -1.367188 3.585938 -2.320312 2.734375 -3.53125 C 1.878906 -4.75 1.453125 -6.128906 1.453125 -7.671875 L 4.953125 -7.671875 C 4.953125 -6.066406 5.539062 -4.800781 6.71875 -3.875 C 7.90625 -2.945312 9.488281 -2.484375 11.46875 -2.484375 C 13.300781 -2.484375 14.707031 -2.859375 15.6875 -3.609375 C 16.675781 -4.359375 17.171875 -5.378906 17.171875 -6.671875 C 17.171875 -7.972656 16.710938 -8.976562 15.796875 -9.6875 C 14.890625 -10.394531 13.242188 -11.097656 10.859375 -11.796875 Z M 10.859375 -11.796875 "/>
      </g>
    </g>
  </g>
  <g fill="#000000" fill-opacity="1" transform="matrix(1, 0, 0, 1, 6.460202, 8.632813)">
    <g transform="translate(59.641346, 308.468259)">
      <g>
        <path d="M 6.1875 0 L 2.828125 0 L 2.828125 -19.65625 L 6.1875 -19.65625 Z M 2.5625 -24.875 C 2.5625 -25.414062 2.726562 -25.875 3.0625 -26.25 C 3.394531 -26.625 3.882812 -26.8125 4.53125 -26.8125 C 5.1875 -26.8125 5.6875 -26.625 6.03125 -26.25 C 6.375 -25.875 6.546875 -25.410156 6.546875 -24.859375 C 6.546875 -24.316406 6.375 -23.863281 6.03125 -23.5 C 5.6875 -23.144531 5.1875 -22.96875 4.53125 -22.96875 C 3.882812 -22.96875 3.394531 -23.144531 3.0625 -23.5 C 2.726562 -23.863281 2.5625 -24.320312 2.5625 -24.875 Z M 2.5625 -24.875 "/>
      </g>
    </g>
  </g>
  <g fill="#000000" fill-opacity="1" transform="matrix(1, 0, 0, 1, 6.460202, 8.632813)">
    <g transform="translate(68.668387, 308.468259)">
      <g>
        <path d="M 1.71875 -9.984375 C 1.71875 -13.003906 2.429688 -15.429688 3.859375 -17.265625 C 5.296875 -19.097656 7.171875 -20.015625 9.484375 -20.015625 C 11.785156 -20.015625 13.609375 -19.226562 14.953125 -17.65625 L 14.953125 -27.90625 L 18.3125 -27.90625 L 18.3125 0 L 15.21875 0 L 15.0625 -2.109375 C 13.71875 -0.460938 11.847656 0.359375 9.453125 0.359375 C 7.171875 0.359375 5.3125 -0.570312 3.875 -2.4375 C 2.4375 -4.300781 1.71875 -6.734375 1.71875 -9.734375 Z M 5.09375 -9.609375 C 5.09375 -7.378906 5.550781 -5.632812 6.46875 -4.375 C 7.382812 -3.113281 8.65625 -2.484375 10.28125 -2.484375 C 12.414062 -2.484375 13.972656 -3.441406 14.953125 -5.359375 L 14.953125 -14.390625 C 13.941406 -16.242188 12.394531 -17.171875 10.3125 -17.171875 C 8.664062 -17.171875 7.382812 -16.535156 6.46875 -15.265625 C 5.550781 -13.992188 5.09375 -12.109375 5.09375 -9.609375 Z M 5.09375 -9.609375 "/>
      </g>
    </g>
  </g>
  <g fill="#000000" fill-opacity="1" transform="matrix(1, 0, 0, 1, 6.460202, 8.632813)">
    <g transform="translate(89.646723, 308.468259)">
      <g>
        <path d="M 10.703125 0.359375 C 8.035156 0.359375 5.863281 -0.515625 4.1875 -2.265625 C 2.519531 -4.015625 1.6875 -6.351562 1.6875 -9.28125 L 1.6875 -9.90625 C 1.6875 -11.851562 2.054688 -13.59375 2.796875 -15.125 C 3.546875 -16.65625 4.585938 -17.851562 5.921875 -18.71875 C 7.265625 -19.582031 8.71875 -20.015625 10.28125 -20.015625 C 12.832031 -20.015625 14.816406 -19.171875 16.234375 -17.484375 C 17.648438 -15.804688 18.359375 -13.398438 18.359375 -10.265625 L 18.359375 -8.859375 L 5.046875 -8.859375 C 5.097656 -6.921875 5.664062 -5.351562 6.75 -4.15625 C 7.832031 -2.96875 9.207031 -2.375 10.875 -2.375 C 12.0625 -2.375 13.066406 -2.613281 13.890625 -3.09375 C 14.710938 -3.582031 15.4375 -4.226562 16.0625 -5.03125 L 18.109375 -3.4375 C 16.460938 -0.90625 13.992188 0.359375 10.703125 0.359375 Z M 10.28125 -17.25 C 8.925781 -17.25 7.785156 -16.753906 6.859375 -15.765625 C 5.941406 -14.785156 5.375 -13.40625 5.15625 -11.625 L 15 -11.625 L 15 -11.875 C 14.90625 -13.582031 14.445312 -14.90625 13.625 -15.84375 C 12.800781 -16.78125 11.6875 -17.25 10.28125 -17.25 Z M 10.28125 -17.25 "/>
      </g>
    </g>
  </g>
  <g fill="#000000" fill-opacity="1" transform="matrix(1, 0, 0, 1, 6.460202, 8.632813)">
    <g transform="translate(109.353644, 308.468259)">
      <g>
        <path d="M 19.953125 -4.625 L 23.71875 -19.65625 L 27.078125 -19.65625 L 21.359375 0 L 18.640625 0 L 13.859375 -14.890625 L 9.203125 0 L 6.484375 0 L 0.78125 -19.65625 L 4.125 -19.65625 L 8 -4.9375 L 12.578125 -19.65625 L 15.28125 -19.65625 Z M 19.953125 -4.625 "/>
      </g>
    </g>
  </g>
  <g fill="#000000" fill-opacity="1" transform="matrix(1, 0, 0, 1, 6.460202, 8.632813)">
    <g transform="translate(137.306595, 308.468259)">
      <g>
        <path d="M 14.671875 0 C 14.484375 -0.382812 14.328125 -1.078125 14.203125 -2.078125 C 12.640625 -0.453125 10.773438 0.359375 8.609375 0.359375 C 6.671875 0.359375 5.082031 -0.1875 3.84375 -1.28125 C 2.601562 -2.375 1.984375 -3.765625 1.984375 -5.453125 C 1.984375 -7.492188 2.757812 -9.082031 4.3125 -10.21875 C 5.875 -11.351562 8.0625 -11.921875 10.875 -11.921875 L 14.15625 -11.921875 L 14.15625 -13.453125 C 14.15625 -14.628906 13.800781 -15.566406 13.09375 -16.265625 C 12.394531 -16.960938 11.359375 -17.3125 9.984375 -17.3125 C 8.785156 -17.3125 7.78125 -17.007812 6.96875 -16.40625 C 6.164062 -15.800781 5.765625 -15.066406 5.765625 -14.203125 L 2.375 -14.203125 C 2.375 -15.179688 2.722656 -16.128906 3.421875 -17.046875 C 4.117188 -17.960938 5.0625 -18.6875 6.25 -19.21875 C 7.445312 -19.75 8.757812 -20.015625 10.1875 -20.015625 C 12.457031 -20.015625 14.234375 -19.445312 15.515625 -18.3125 C 16.796875 -17.1875 17.460938 -15.628906 17.515625 -13.640625 L 17.515625 -4.59375 C 17.515625 -2.789062 17.742188 -1.359375 18.203125 -0.296875 L 18.203125 0 Z M 9.09375 -2.5625 C 10.15625 -2.5625 11.15625 -2.832031 12.09375 -3.375 C 13.039062 -3.925781 13.726562 -4.632812 14.15625 -5.5 L 14.15625 -9.53125 L 11.515625 -9.53125 C 7.398438 -9.53125 5.34375 -8.328125 5.34375 -5.921875 C 5.34375 -4.867188 5.691406 -4.046875 6.390625 -3.453125 C 7.097656 -2.859375 8 -2.5625 9.09375 -2.5625 Z M 9.09375 -2.5625 "/>
      </g>
    </g>
  </g>
  <g fill="#000000" fill-opacity="1" transform="matrix(1, 0, 0, 1, 6.460202, 8.632813)">
    <g transform="translate(157.540246, 308.468259)">
      <g>
        <path d="M 6.1875 0 L 2.828125 0 L 2.828125 -27.90625 L 6.1875 -27.90625 Z M 6.1875 0 "/>
      </g>
    </g>
  </g>
  <g fill="#000000" fill-opacity="1" transform="matrix(1, 0, 0, 1, 6.460202, 8.632813)">
    <g transform="translate(166.567287, 308.468259)">
      <g>
        <path d="M 8.03125 -9.09375 L 5.921875 -6.90625 L 5.921875 0 L 2.5625 0 L 2.5625 -27.90625 L 5.921875 -27.90625 L 5.921875 -11.03125 L 7.71875 -13.1875 L 13.84375 -19.65625 L 17.921875 -19.65625 L 10.28125 -11.4375 L 18.8125 0 L 14.875 0 Z M 8.03125 -9.09375 "/>
      </g>
    </g>
  </g>
  <g fill="#000000" fill-opacity="1">
    <g transform="translate(185.420544, 308.468259)">
      <g/>
    </g>
  </g>
  <g fill="#000000" fill-opacity="1" transform="matrix(1, 0, 0, 1, 6.460202, 8.632813)">
    <g transform="translate(194.621062, 308.468259)">
      <g>
        <path d="M 16.078125 -6.9375 C 16.078125 -7.96875 15.710938 -8.757812 14.984375 -9.3125 C 14.253906 -9.863281 12.945312 -10.441406 11.0625 -11.046875 C 9.175781 -11.660156 7.679688 -12.265625 6.578125 -12.859375 C 3.578125 -14.484375 2.078125 -16.671875 2.078125 -19.421875 C 2.078125 -20.847656 2.476562 -22.117188 3.28125 -23.234375 C 4.082031 -24.359375 5.238281 -25.234375 6.75 -25.859375 C 8.257812 -26.492188 9.953125 -26.8125 11.828125 -26.8125 C 13.710938 -26.8125 15.394531 -26.46875 16.875 -25.78125 C 18.351562 -25.101562 19.5 -24.140625 20.3125 -22.890625 C 21.132812 -21.640625 21.546875 -20.222656 21.546875 -18.640625 L 16.09375 -18.640625 C 16.09375 -19.847656 15.710938 -20.785156 14.953125 -21.453125 C 14.191406 -22.128906 13.117188 -22.46875 11.734375 -22.46875 C 10.398438 -22.46875 9.363281 -22.1875 8.625 -21.625 C 7.882812 -21.0625 7.515625 -20.320312 7.515625 -19.40625 C 7.515625 -18.539062 7.945312 -17.816406 8.8125 -17.234375 C 9.6875 -16.660156 10.960938 -16.117188 12.640625 -15.609375 C 15.742188 -14.671875 18.003906 -13.507812 19.421875 -12.125 C 20.835938 -10.75 21.546875 -9.03125 21.546875 -6.96875 C 21.546875 -4.6875 20.675781 -2.894531 18.9375 -1.59375 C 17.207031 -0.289062 14.878906 0.359375 11.953125 0.359375 C 9.921875 0.359375 8.066406 -0.0078125 6.390625 -0.75 C 4.722656 -1.5 3.445312 -2.519531 2.5625 -3.8125 C 1.6875 -5.113281 1.25 -6.613281 1.25 -8.3125 L 6.71875 -8.3125 C 6.71875 -5.394531 8.460938 -3.9375 11.953125 -3.9375 C 13.242188 -3.9375 14.253906 -4.195312 14.984375 -4.71875 C 15.710938 -5.25 16.078125 -5.988281 16.078125 -6.9375 Z M 16.078125 -6.9375 "/>
      </g>
    </g>
  </g>
  <g fill="#000000" fill-opacity="1" transform="matrix(1, 0, 0, 1, 6.460202, 8.632813)">
    <g transform="translate(217.488356, 308.468259)">
      <g>
        <path d="M 7.5625 0 L 2.28125 0 L 2.28125 -19.65625 L 7.5625 -19.65625 Z M 1.984375 -24.734375 C 1.984375 -25.523438 2.242188 -26.175781 2.765625 -26.6875 C 3.296875 -27.195312 4.015625 -27.453125 4.921875 -27.453125 C 5.816406 -27.453125 6.53125 -27.195312 7.0625 -26.6875 C 7.59375 -26.175781 7.859375 -25.523438 7.859375 -24.734375 C 7.859375 -23.941406 7.585938 -23.289062 7.046875 -22.78125 C 6.515625 -22.269531 5.804688 -22.015625 4.921875 -22.015625 C 4.035156 -22.015625 3.320312 -22.269531 2.78125 -22.78125 C 2.25 -23.289062 1.984375 -23.941406 1.984375 -24.734375 Z M 1.984375 -24.734375 "/>
      </g>
    </g>
  </g>
  <g fill="#000000" fill-opacity="1" transform="matrix(1, 0, 0, 1, 6.460202, 8.632813)">
    <g transform="translate(227.350898, 308.468259)">
      <g>
        <path d="M 1.203125 -9.96875 C 1.203125 -13.03125 1.890625 -15.46875 3.265625 -17.28125 C 4.640625 -19.101562 6.519531 -20.015625 8.90625 -20.015625 C 10.8125 -20.015625 12.390625 -19.300781 13.640625 -17.875 L 13.640625 -27.90625 L 18.90625 -27.90625 L 18.90625 0 L 14.171875 0 L 13.921875 -2.09375 C 12.609375 -0.457031 10.921875 0.359375 8.859375 0.359375 C 6.546875 0.359375 4.691406 -0.550781 3.296875 -2.375 C 1.898438 -4.195312 1.203125 -6.726562 1.203125 -9.96875 Z M 6.453125 -9.59375 C 6.453125 -7.75 6.769531 -6.335938 7.40625 -5.359375 C 8.050781 -4.378906 8.984375 -3.890625 10.203125 -3.890625 C 11.828125 -3.890625 12.972656 -4.570312 13.640625 -5.9375 L 13.640625 -13.703125 C 12.984375 -15.066406 11.851562 -15.75 10.25 -15.75 C 7.71875 -15.75 6.453125 -13.695312 6.453125 -9.59375 Z M 6.453125 -9.59375 "/>
      </g>
    </g>
  </g>
  <g fill="#000000" fill-opacity="1" transform="matrix(1, 0, 0, 1, 6.460202, 8.632813)">
    <g transform="translate(248.31107, 308.468259)">
      <g>
        <path d="M 11.0625 0.359375 C 8.175781 0.359375 5.828125 -0.519531 4.015625 -2.28125 C 2.210938 -4.050781 1.3125 -6.410156 1.3125 -9.359375 L 1.3125 -9.859375 C 1.3125 -11.835938 1.691406 -13.601562 2.453125 -15.15625 C 3.210938 -16.71875 4.289062 -17.914062 5.6875 -18.75 C 7.09375 -19.59375 8.691406 -20.015625 10.484375 -20.015625 C 13.171875 -20.015625 15.285156 -19.164062 16.828125 -17.46875 C 18.367188 -15.78125 19.140625 -13.378906 19.140625 -10.265625 L 19.140625 -8.125 L 6.625 -8.125 C 6.800781 -6.832031 7.316406 -5.800781 8.171875 -5.03125 C 9.023438 -4.257812 10.101562 -3.875 11.40625 -3.875 C 13.425781 -3.875 15.007812 -4.601562 16.15625 -6.0625 L 18.734375 -3.171875 C 17.941406 -2.054688 16.875 -1.1875 15.53125 -0.5625 C 14.1875 0.0507812 12.695312 0.359375 11.0625 0.359375 Z M 10.46875 -15.765625 C 9.425781 -15.765625 8.578125 -15.410156 7.921875 -14.703125 C 7.273438 -14.003906 6.863281 -13.003906 6.6875 -11.703125 L 13.984375 -11.703125 L 13.984375 -12.109375 C 13.960938 -13.273438 13.648438 -14.175781 13.046875 -14.8125 C 12.441406 -15.445312 11.582031 -15.765625 10.46875 -15.765625 Z M 10.46875 -15.765625 "/>
      </g>
    </g>
  </g>
  <g fill="#000000" fill-opacity="1" transform="matrix(1, 0, 0, 1, 6.460202, 8.632813)">
    <g transform="translate(268.417578, 308.468259)">
      <g>
        <path d="M 9.15625 -7.890625 L 7.265625 -6 L 7.265625 0 L 2.015625 0 L 2.015625 -27.90625 L 7.265625 -27.90625 L 7.265625 -12.4375 L 8.28125 -13.75 L 13.3125 -19.65625 L 19.625 -19.65625 L 12.515625 -11.46875 L 20.234375 0 L 14.203125 0 Z M 9.15625 -7.890625 "/>
      </g>
    </g>
  </g>
  <g fill="#000000" fill-opacity="1" transform="matrix(1, 0, 0, 1, 6.460202, 8.632813)">
    <g transform="translate(288.287967, 308.468259)">
      <g>
        <path d="M 7.5625 0 L 2.28125 0 L 2.28125 -19.65625 L 7.5625 -19.65625 Z M 1.984375 -24.734375 C 1.984375 -25.523438 2.242188 -26.175781 2.765625 -26.6875 C 3.296875 -27.195312 4.015625 -27.453125 4.921875 -27.453125 C 5.816406 -27.453125 6.53125 -27.195312 7.0625 -26.6875 C 7.59375 -26.175781 7.859375 -25.523438 7.859375 -24.734375 C 7.859375 -23.941406 7.585938 -23.289062 7.046875 -22.78125 C 6.515625 -22.269531 5.804688 -22.015625 4.921875 -22.015625 C 4.035156 -22.015625 3.320312 -22.269531 2.78125 -22.78125 C 2.25 -23.289062 1.984375 -23.941406 1.984375 -24.734375 Z M 1.984375 -24.734375 "/>
      </g>
    </g>
  </g>
  <g fill="#000000" fill-opacity="1" transform="matrix(1, 0, 0, 1, 6.460202, 8.632813)">
    <g transform="translate(298.150509, 308.468259)">
      <g>
        <path d="M 10.1875 -3.875 C 11.15625 -3.875 11.941406 -4.140625 12.546875 -4.671875 C 13.148438 -5.203125 13.46875 -5.910156 13.5 -6.796875 L 18.421875 -6.796875 C 18.410156 -5.460938 18.046875 -4.238281 17.328125 -3.125 C 16.617188 -2.019531 15.640625 -1.160156 14.390625 -0.546875 C 13.148438 0.0546875 11.78125 0.359375 10.28125 0.359375 C 7.46875 0.359375 5.25 -0.53125 3.625 -2.3125 C 2.007812 -4.101562 1.203125 -6.570312 1.203125 -9.71875 L 1.203125 -10.0625 C 1.203125 -13.09375 2.003906 -15.507812 3.609375 -17.3125 C 5.222656 -19.113281 7.4375 -20.015625 10.25 -20.015625 C 12.707031 -20.015625 14.675781 -19.316406 16.15625 -17.921875 C 17.644531 -16.523438 18.398438 -14.660156 18.421875 -12.328125 L 13.5 -12.328125 C 13.46875 -13.347656 13.148438 -14.175781 12.546875 -14.8125 C 11.941406 -15.445312 11.144531 -15.765625 10.15625 -15.765625 C 8.925781 -15.765625 8 -15.316406 7.375 -14.421875 C 6.757812 -13.535156 6.453125 -12.09375 6.453125 -10.09375 L 6.453125 -9.5625 C 6.453125 -7.53125 6.757812 -6.070312 7.375 -5.1875 C 7.988281 -4.3125 8.925781 -3.875 10.1875 -3.875 Z M 10.1875 -3.875 "/>
      </g>
    </g>
  </g>
  <g fill="#000000" fill-opacity="1" transform="matrix(1, 0, 0, 1, 6.460202, 8.632813)">
    <g transform="translate(317.548658, 308.468259)">
      <g>
        <path d="M 9.15625 -7.890625 L 7.265625 -6 L 7.265625 0 L 2.015625 0 L 2.015625 -27.90625 L 7.265625 -27.90625 L 7.265625 -12.4375 L 8.28125 -13.75 L 13.3125 -19.65625 L 19.625 -19.65625 L 12.515625 -11.46875 L 20.234375 0 L 14.203125 0 Z M 9.15625 -7.890625 "/>
      </g>
    </g>
  </g>
  <g clip-path="url(#40f87b9805)" transform="matrix(1, 0, 0, 1, 11.886758, 17.882324)">
    <path fill="#ffffff" d="M 297.84375 278.917969 L 297.628906 278.917969 L 297.628906 279.5625 L 298.234375 279.5625 L 298.234375 279.308594 C 298.234375 279.09375 298.058594 278.917969 297.84375 278.917969 Z M 297.84375 278.917969 " fill-opacity="1" fill-rule="nonzero"/>
  </g>
  <g clip-path="url(#e9ed7eed96)" transform="matrix(1, 0, 0, 1, 6.460202, 8.632813)">
    <path fill="#ffffff" d="M 297.628906 279.5625 L 298.234375 279.5625 L 298.234375 288.101562 L 297.628906 288.101562 Z M 297.628906 279.5625 " fill-opacity="1" fill-rule="nonzero"/>
  </g>
  <g clip-path="url(#d13a12af81)" transform="matrix(1, 0, 0, 1, 6.460202, 8.632813)">
    <path fill="#ffffff" d="M 289.085938 279.5625 L 297.628906 279.5625 L 297.628906 288.101562 L 289.085938 288.101562 Z M 289.085938 279.5625 " fill-opacity="1" fill-rule="nonzero"/>
  </g>
  <g clip-path="url(#92df1bfebb)" transform="matrix(1, 0, 0, 1, 11.886758, 17.882324)">
    <path fill="#ffffff" d="M 289.085938 278.917969 L 297.628906 278.917969 L 297.628906 279.5625 L 289.085938 279.5625 Z M 289.085938 278.917969 " fill-opacity="1" fill-rule="nonzero"/>
  </g>
  <g clip-path="url(#e0437897d7)" transform="matrix(1, 0, 0, 1, 11.886758, 17.882324)">
    <path fill="#ffffff" d="M 288.871094 278.917969 C 288.65625 278.917969 288.484375 279.09375 288.484375 279.308594 L 288.484375 279.5625 L 289.085938 279.5625 L 289.085938 278.917969 Z M 288.871094 278.917969 " fill-opacity="1" fill-rule="nonzero"/>
  </g>
  <g clip-path="url(#60d00acae7)" transform="matrix(1, 0, 0, 1, 6.460202, 8.632813)">
    <path fill="#ffffff" d="M 288.484375 279.5625 L 289.085938 279.5625 L 289.085938 288.101562 L 288.484375 288.101562 Z M 288.484375 279.5625 " fill-opacity="1" fill-rule="nonzero"/>
  </g>
  <g clip-path="url(#32e9d38e85)" transform="matrix(1, 0, 0, 1, 6.460202, 8.632813)">
    <path fill="#ffffff" d="M 289.085938 288.101562 L 297.628906 288.101562 L 297.628906 288.667969 L 289.085938 288.667969 Z M 289.085938 288.101562 " fill-opacity="1" fill-rule="nonzero"/>
  </g>
  <g clip-path="url(#f615a24346)" transform="matrix(1, 0, 0, 1, 6.460202, 8.632813)">
    <path fill="#ffffff" d="M 288.484375 288.101562 L 288.484375 288.277344 C 288.484375 288.492188 288.65625 288.667969 288.871094 288.667969 L 289.085938 288.667969 L 289.085938 288.101562 Z M 288.484375 288.101562 " fill-opacity="1" fill-rule="nonzero"/>
  </g>
  <g clip-path="url(#f15abd0d20)" transform="matrix(1, 0, 0, 1, 6.460202, 8.632813)">
    <path fill="#ffffff" d="M 297.84375 288.667969 C 298.058594 288.667969 298.234375 288.492188 298.234375 288.277344 L 298.234375 288.101562 L 297.628906 288.101562 L 297.628906 288.667969 Z M 297.84375 288.667969 " fill-opacity="1" fill-rule="nonzero"/>
  </g>
  <g clip-path="url(#804fb3ad24)" transform="matrix(1, 0, 0, 1, 6.373166, 8.539063)">
    <path fill="#000000" d="M 293.359375 274.703125 C 290.664062 274.703125 288.484375 276.820312 288.484375 279.425781 C 288.484375 282.96875 293.359375 288.195312 293.359375 288.195312 C 293.359375 288.195312 298.234375 282.96875 298.234375 279.425781 C 298.234375 276.820312 296.050781 274.703125 293.359375 274.703125 Z M 293.359375 281.113281 C 292.394531 281.113281 291.617188 280.355469 291.617188 279.425781 C 291.617188 278.496094 292.394531 277.738281 293.359375 277.738281 C 294.320312 277.738281 295.097656 278.496094 295.097656 279.425781 C 295.097656 280.355469 294.320312 281.113281 293.359375 281.113281 Z M 293.359375 281.113281 " fill-opacity="1" fill-rule="nonzero"/>
  </g>
  <g clip-path="url(#4132b203f0)" transform="matrix(1, 0, 0, 1, 172.858429, 2.034177)">
    <path fill="#000000" d="M 129.789062 220.402344 C 129.921875 220.238281 129.996094 220.050781 130.015625 219.84375 C 130.03125 219.632812 129.988281 219.4375 129.882812 219.257812 L 108.582031 182.308594 C 108.539062 182.230469 108.484375 182.160156 108.421875 182.097656 C 108.359375 182.035156 108.292969 181.984375 108.214844 181.9375 C 108.136719 181.894531 108.058594 181.859375 107.972656 181.835938 C 107.886719 181.816406 107.800781 181.804688 107.710938 181.804688 C 107.625 181.804688 107.535156 181.816406 107.453125 181.835938 C 107.367188 181.859375 107.285156 181.894531 107.207031 181.9375 C 107.132812 181.984375 107.0625 182.035156 107 182.097656 C 106.9375 182.160156 106.882812 182.230469 106.839844 182.308594 L 85.539062 219.257812 C 85.4375 219.4375 85.390625 219.632812 85.410156 219.84375 C 85.425781 220.054688 85.5 220.238281 85.632812 220.402344 C 85.765625 220.5625 85.933594 220.671875 86.136719 220.730469 C 86.335938 220.789062 86.535156 220.78125 86.734375 220.714844 L 107.710938 213.589844 L 128.6875 220.714844 C 128.886719 220.78125 129.085938 220.789062 129.289062 220.730469 C 129.488281 220.671875 129.65625 220.5625 129.789062 220.402344 Z M 129.789062 220.402344 " fill-opacity="1" fill-rule="nonzero"/>
  </g>
  <g transform="matrix(1, 0, 0, -1, 5.426556, 304.313477)">
    <g fill="#000000" fill-opacity="1">
      <g transform="translate(208.744899, 112.102284)">
        <g>
          <path d="M -58.671875 63.6875 C -42.515625 68.320312 -30.753906 74.023438 -23.390625 80.796875 C -16.035156 87.566406 -12.359375 95.925781 -12.359375 105.875 C -12.359375 117.125 -16.851562 126.425781 -25.84375 133.78125 C -34.84375 141.144531 -46.539062 144.828125 -60.9375 144.828125 C -70.75 144.828125 -79.492188 142.929688 -87.171875 139.140625 C -94.859375 135.347656 -100.8125 130.113281 -105.03125 123.4375 C -109.257812 116.757812 -111.375 109.46875 -111.375 101.5625 L -92.4375 101.5625 C -92.4375 110.195312 -89.6875 116.984375 -84.1875 121.921875 C -78.695312 126.859375 -70.945312 129.328125 -60.9375 129.328125 C -51.644531 129.328125 -44.398438 127.28125 -39.203125 123.1875 C -34.003906 119.101562 -31.40625 113.429688 -31.40625 106.171875 C -31.40625 100.347656 -33.875 95.421875 -38.8125 91.390625 C -43.75 87.367188 -52.148438 83.691406 -64.015625 80.359375 C -75.890625 77.023438 -85.179688 73.34375 -91.890625 69.3125 C -98.597656 65.289062 -103.566406 60.597656 -106.796875 55.234375 C -110.035156 49.878906 -111.65625 43.570312 -111.65625 36.3125 C -111.65625 24.726562 -107.140625 15.453125 -98.109375 8.484375 C -89.085938 1.515625 -77.023438 -1.96875 -61.921875 -1.96875 C -52.109375 -1.96875 -42.945312 -0.0859375 -34.4375 3.671875 C -25.9375 7.441406 -19.378906 12.597656 -14.765625 19.140625 C -10.148438 25.679688 -7.84375 33.101562 -7.84375 41.40625 L -26.78125 41.40625 C -26.78125 32.769531 -29.96875 25.945312 -36.34375 20.9375 C -42.726562 15.9375 -51.253906 13.4375 -61.921875 13.4375 C -71.859375 13.4375 -79.472656 15.460938 -84.765625 19.515625 C -90.066406 23.578125 -92.71875 29.109375 -92.71875 36.109375 C -92.71875 43.109375 -90.265625 48.519531 -85.359375 52.34375 C -80.453125 56.175781 -71.554688 59.957031 -58.671875 63.6875 Z M -58.671875 63.6875 "/>
        </g>
      </g>
    </g>
  </g>
  <g transform="matrix(1, 0, 0, -1, 5.426556, 302.179596)">
    <g fill="#000000" fill-opacity="1">
      <g transform="translate(173.523231, 187.894733)">
        <g>
          <path d="M 58.671875 -63.6875 C 42.515625 -68.320312 30.753906 -74.023438 23.390625 -80.796875 C 16.035156 -87.566406 12.359375 -95.925781 12.359375 -105.875 C 12.359375 -117.125 16.851562 -126.425781 25.84375 -133.78125 C 34.84375 -141.144531 46.539062 -144.828125 60.9375 -144.828125 C 70.75 -144.828125 79.492188 -142.929688 87.171875 -139.140625 C 94.859375 -135.347656 100.8125 -130.113281 105.03125 -123.4375 C 109.257812 -116.757812 111.375 -109.46875 111.375 -101.5625 L 92.4375 -101.5625 C 92.4375 -110.195312 89.6875 -116.984375 84.1875 -121.921875 C 78.695312 -126.859375 70.945312 -129.328125 60.9375 -129.328125 C 51.644531 -129.328125 44.398438 -127.28125 39.203125 -123.1875 C 34.003906 -119.101562 31.40625 -113.429688 31.40625 -106.171875 C 31.40625 -100.347656 33.875 -95.421875 38.8125 -91.390625 C 43.75 -87.367188 52.148438 -83.691406 64.015625 -80.359375 C 75.890625 -77.023438 85.179688 -73.34375 91.890625 -69.3125 C 98.597656 -65.289062 103.566406 -60.597656 106.796875 -55.234375 C 110.035156 -49.878906 111.65625 -43.570312 111.65625 -36.3125 C 111.65625 -24.726562 107.140625 -15.453125 98.109375 -8.484375 C 89.085938 -1.515625 77.023438 1.96875 61.921875 1.96875 C 52.109375 1.96875 42.945312 0.0859375 34.4375 -3.671875 C 25.9375 -7.441406 19.378906 -12.597656 14.765625 -19.140625 C 10.148438 -25.679688 7.84375 -33.101562 7.84375 -41.40625 L 26.78125 -41.40625 C 26.78125 -32.769531 29.96875 -25.945312 36.34375 -20.9375 C 42.726562 -15.9375 51.253906 -13.4375 61.921875 -13.4375 C 71.859375 -13.4375 79.472656 -15.460938 84.765625 -19.515625 C 90.066406 -23.578125 92.71875 -29.109375 92.71875 -36.109375 C 92.71875 -43.109375 90.265625 -48.519531 85.359375 -52.34375 C 80.453125 -56.175781 71.554688 -59.957031 58.671875 -63.6875 Z M 58.671875 -63.6875 "/>
        </g>
      </g>
    </g>
  </g>
  <g clip-path="url(#6eae70eae6)" transform="matrix(1, 0, 0, 1, -161.77594, -3.750488)">
    <path fill="#000000" d="M 253.339844 79.484375 C 253.207031 79.644531 253.132812 79.832031 253.113281 80.039062 C 253.097656 80.25 253.140625 80.445312 253.246094 80.625 L 274.546875 117.578125 C 274.589844 117.652344 274.644531 117.722656 274.707031 117.785156 C 274.769531 117.847656 274.835938 117.902344 274.914062 117.945312 C 274.992188 117.988281 275.070312 118.023438 275.15625 118.046875 C 275.242188 118.070312 275.328125 118.082031 275.417969 118.082031 C 275.503906 118.082031 275.59375 118.070312 275.675781 118.046875 C 275.761719 118.023438 275.84375 117.988281 275.921875 117.945312 C 275.996094 117.902344 276.066406 117.847656 276.128906 117.785156 C 276.191406 117.722656 276.246094 117.652344 276.289062 117.578125 L 297.589844 80.625 C 297.691406 80.445312 297.738281 80.25 297.71875 80.039062 C 297.703125 79.832031 297.628906 79.644531 297.496094 79.484375 C 297.363281 79.320312 297.195312 79.210938 296.992188 79.152344 C 296.792969 79.097656 296.59375 79.101562 296.394531 79.167969 L 275.417969 86.292969 L 254.441406 79.167969 C 254.242188 79.101562 254.042969 79.097656 253.839844 79.152344 C 253.640625 79.210938 253.472656 79.320312 253.339844 79.484375 Z M 253.339844 79.484375 " fill-opacity="1" fill-rule="nonzero"/>
  </g>
</svg>